# xmcd
#
# Track frame offsets: 
#        150
#        17835
#        52952
#
# Disc length: 1199 seconds
#
# Revision: 3
# Processed by: cddbd v1.5.2PL0 Copyright (c) Steve Scherf et al.
# Submitted via: ExactAudioCopy v0.99pb3
#
DISCID=1b04ad03
DTITLE=Paul van Dyk - For An Angel [CD Single)
DYEAR=1998
DGENRE=Trance
TTITLE0=For An Angel (P.v.D. Angel In Heaven Radio mix)
TTITLE1=For An Angel (P.v.D. E-Werk Club mix)
TTITLE2=For An Angel (Ashtrax Fallen mix)
EXTD=YEAR: 1998
EXTT0=
EXTT1=
EXTT2=
PLAYORDER=
